# xmcd CD database file
#
# Track frame offsets:
#	150
#	12860
#	28525
#	50255
#	64110
#	76212
#	98020
#	112605
#	129165
#	147235
#	163905
#	175550
#	190872
#	205927
#	223460
#	239487
#	252885
#
# Disc length: 3601 seconds
#
# Revision: 0
# Processed by: cddbd v1.5.2PL0 Copyright (c) Steve Scherf et al.
# Submitted via: CDex 1.51
#
DISCID=df0e0f11
DTITLE=Bob Wilber and Ove Lind - Vital Wilber and Liliting Lind
DYEAR=1900
DGENRE=Jazz
TTITLE0=Jubilee
TTITLE1=I'm gonna sit right down and write myself a letter
TTITLE2=Am i blue?
TTITLE3=Nice work if you can get it
TTITLE4=My heart stood still
TTITLE5=After you've gone
TTITLE6=The land of the midnight sun
TTITLE7=Clarion song
TTITLE8=Sunday
TTITLE9=Treasure
TTITLE10=Limehouse blues
TTITLE11=There's a small hotel
TTITLE12=How long has this been going on?
TTITLE13=Sugar
TTITLE14=Don't get arount much anymore
TTITLE15=Good friday bounce
TTITLE16=East of the sun
EXTD=
EXTT0=
EXTT1=
EXTT2=
EXTT3=
EXTT4=
EXTT5=
EXTT6=
EXTT7=
EXTT8=
EXTT9=
EXTT10=
EXTT11=
EXTT12=
EXTT13=
EXTT14=
EXTT15=
EXTT16=
PLAYORDER=
